#!OML:ASF H:\MichaelJackson\Top Level 1\Subject 1\Session 1\male.ASF
:FULLY-SPECIFIED
:DEGREES
273
root 3.75104 17.2706 -17.117 9.5558 21.4822 -4.73066
lowerback -5.14823 0.580137 3.72927
upperback -2.0015 0.596423 0.37416
thorax 0.859493 0.290817 -1.67247
lowerneck -10.5189 -7.18913 0.186523
upperneck 33.2857 -11.7603 3.98898
head 13.1635 -4.57122 -0.13292
rclavicle -2.4699e-014 1.78906e-014
rhumerus -51.8788 10.3997 -76.6202
rradius 69.7779
rwrist -1.56936
rhand -6.74902 -18.1431
rfingers 7.12502
rthumb 19.1122 -407.224
lclavicle -2.4699e-014 1.78906e-014
lhumerus -66.2582 -12.6003 100.101
lradius 55.9298
lwrist 20.4859
lhand 3.66646 16.2825
lfingers 7.12502
lthumb 29.0972 44.0295
rfemur -14.8741 2.23694 24.4097
rtibia 23.8451
rfoot -13.4367 14.4171
rtoes 28.4328
lfemur -42.9721 -19.9439 -6.44369
ltibia 54.4092
lfoot 2.93482 -17.2606
ltoes 41.6616
274
root 3.75236 17.2356 -17.092 9.19712 21.6248 -5.20691
lowerback -4.96267 0.567436 3.92354
upperback -1.89571 0.571334 0.821966
thorax 0.860622 0.280446 -1.32339
lowerneck -10.3973 -7.21729 -0.148485
upperneck 34.0833 -11.7942 4.02851
head 13.514 -4.58422 -0.0709821
rclavicle -4.16454e-014 2.90226e-014
rhumerus -51.9904 9.56775 -77.4256
rradius 67.4055
rwrist -1.08215
rhand -6.2846 -18.0116
rfingers 7.12502
rthumb 19.5588 -407.048
lclavicle -4.16454e-014 2.90226e-014
lhumerus -66.5868 -11.6359 100.31
lradius 56.3092
lwrist 20.3406
lhand 3.95343 16.3019
lfingers 7.12502
lthumb 29.3712 44.0012
rfemur -14.72 1.19329 24.9582
rtibia 24.0864
rfoot -13.3263 15.6856
rtoes 31.4787
lfemur -42.96 -20.1696 -6.22297
ltibia 54.1237
lfoot 3.20326 -17.2073
ltoes 42.5609
275
root 3.75534 17.1986 -17.0681 8.823 21.6873 -5.80336
lowerback -4.81229 0.57945 4.21735
upperback -1.79206 0.573602 1.31313
thorax 0.880922 0.284114 -0.983603
lowerneck -10.2673 -7.23529 -0.466387
upperneck 34.814 -11.7964 4.02519
head 13.8345 -4.59161 -0.0214678
rclavicle 2.25124e-014 3.70733e-014
rhumerus -52.0002 8.71643 -78.0835
rradius 64.9795
rwrist -0.874926
rhand -6.63332 -18.3032
rfingers 7.12502
rthumb 19.2234 -407.373
lclavicle 2.25124e-014 3.70733e-014
lhumerus -66.8611 -10.5874 100.474
lradius 56.6303
lwrist 20.1127
lhand 4.29818 16.2697
lfingers 7.12502
lthumb 29.7003 43.9108
rfemur -14.5716 0.0971712 25.6033
rtibia 24.265
rfoot -13.0197 17.2266
rtoes 34.8302
lfemur -42.9491 -20.1549 -5.92297
ltibia 54.1616
lfoot 3.32149 -16.9661
ltoes 43.1908
276
root 3.75998 17.161 -17.0453 8.44513 21.6677 -6.52636
lowerback -4.71399 0.611167 4.6105
upperback -1.68729 0.595146 1.85466
thorax 0.932498 0.298247 -0.645713
lowerneck -10.1338 -7.23926 -0.766789
upperneck 35.4743 -11.758 3.97274
head 14.1216 -4.59058 0.0136324
rclavicle -4.33552e-014 -3.26255e-014
rhumerus -51.8961 7.83591 -78.5789
rradius 62.5425
rwrist -0.934112
rhand -7.77039 -18.9873
rfingers 7.12502
rthumb 18.1298 -408.162
lclavicle -4.33552e-014 -3.26255e-014
lhumerus -67.0893 -9.45015 100.601
lradius 56.8983
lwrist 19.8297
lhand 4.68873 16.1662
lfingers 7.12502
lthumb 30.073 43.7402
rfemur -14.4622 -1.02415 26.3571
rtibia 24.4291
rfoot -12.5565 18.9041
rtoes 37.9994
lfemur -42.9772 -19.9134 -5.52081
ltibia 54.5322
lfoot 3.2627 -16.5789
ltoes 43.5816
277
root 3.76576 17.1331 -17.0234 8.06837 21.5825 -7.36019
lowerback -4.65635 0.648497 5.08403
upperback -1.58069 0.617887 2.44652
thorax 1.00873 0.313964 -0.299649
lowerneck -10.0009 -7.22449 -1.05269
upperneck 36.0631 -11.671 3.87119
head 14.3735 -4.57806 0.0353161
rclavicle 1.47908e-014 3.06128e-014
rhumerus -51.6878 6.91656 -78.8997
rradius 60.1665
rwrist -1.25478
rhand -9.46821 -20.0945
rfingers 7.12502
rthumb 16.4957 -409.413
lclavicle 1.47908e-014 3.06128e-014
lhumerus -67.2832 -8.22796 100.707
lradius 57.1182
lwrist 19.5585
lhand 5.07429 15.9914
lfingers 7.12502
lthumb 30.4408 43.498
rfemur -14.3742 -2.11549 27.2083
rtibia 24.547
rfoot -11.9976 20.5744
rtoes 40.6443
lfemur -43.0331 -19.4897 -5.01867
ltibia 55.1532
lfoot 3.06115 -16.1129
ltoes 43.8035
278
root 3.77206 17.0993 -17.0033 7.69468 21.4521 -8.25835
lowerback -4.62045 0.681627 5.58799
upperback -1.46459 0.631098 3.07849
thorax 1.10627 0.326122 0.0718449
lowerneck -9.8951 -7.20082 -1.32716
upperneck 36.5851 -11.5504 3.72157
head 14.5977 -4.55994 0.0403418
rclavicle 2.07481e-014 1.59028e-015
rhumerus -51.401 5.94412 -79.0406
rradius 57.9486
rwrist -1.81441
rhand -11.5363 -21.6665
rfingers 7.12502
rthumb 14.5038 -411.14
lclavicle 2.07481e-014 1.59028e-015
lhumerus -67.4484 -6.9589 100.823
lradius 57.2982
lwrist 19.3918
lhand 5.37645 15.7581
lfingers 7.12502
lthumb 30.729 43.2108
rfemur -14.3118 -3.14515 28.1185
rtibia 24.6393
rfoot -11.2986 22.198
rtoes 42.9582
lfemur -43.1851 -18.9388 -4.4492
ltibia 56.0033
lfoot 2.81281 -15.6342
ltoes 43.7667
279
root 3.77774 17.0695 -16.9845 7.32281 21.3023 -9.16308
lowerback -4.55649 0.692764 6.07901
upperback -1.34416 0.617259 3.72591
thorax 1.19138 0.325183 0.46639
lowerneck -9.80521 -7.16189 -1.59835
upperneck 37.0342 -11.3927 3.54803
head 14.7899 -4.53317 0.0405751
rclavicle 3.29734e-014 5.04913e-014
rhumerus -51.0887 4.94402 -79.0437
rradius 55.9886
rwrist -2.57901
rhand -13.8264 -23.7375
rfingers 7.12502
rthumb 12.2965 -413.356
lclavicle 3.29734e-014 5.04913e-014
lhumerus -67.6048 -5.67217 100.963
lradius 57.4573
lwrist 19.4243
lhand 5.53314 15.5352
lfingers 7.12502
lthumb 30.8784 42.9598
rfemur -14.2346 -4.04714 29.0371
rtibia 24.6927
rfoot -10.5307 23.6567
rtoes 44.8892
lfemur -43.3894 -18.3286 -3.86402
ltibia 56.9629
lfoot 2.63304 -15.1848
ltoes 43.5326
280
root 3.78219 17.0437 -16.9672 6.95533 21.1527 -10.0143
lowerback -4.45821 0.690874 6.49537
upperback -1.20544 0.591371 4.36692
thorax 1.2755 0.318751 0.89679
lowerneck -9.729 -7.12563 -1.85529
upperneck 37.3869 -11.2311 3.36716
head 14.9391 -4.50885 0.0359601
rclavicle -9.24349e-015 3.18055e-014
rhumerus -50.7842 3.91808 -78.94
rradius 54.3642
rwrist -3.48883
rhand -16.2375 -26.3243
rfingers 7.12502
rthumb 9.97101 -416.068
lclavicle -9.24349e-015 3.18055e-014
lhumerus -67.7398 -4.45619 101.167
lradius 57.6056
lwrist 19.7235
lhand 5.5133 15.3766
lfingers 7.12502
lthumb 30.8594 42.8048
rfemur -14.1549 -4.75898 29.9036
rtibia 24.7789
rfoot -9.95554 24.7914
rtoes 46.1204
lfemur -43.6364 -17.7267 -3.31448
ltibia 57.9697
lfoot 2.59827 -14.7986
ltoes 43.3066
281
root 3.78488 17.0219 -16.9514 6.58697 21.0181 -10.7664
lowerback -4.28762 0.669841 6.81944
upperback -1.05242 0.550965 4.96915
thorax 1.33362 0.304596 1.33858
lowerneck -9.66858 -7.09059 -2.09366
upperneck 37.6491 -11.0737 3.19976
head 15.0492 -4.4863 0.0328964
rclavicle 2.31087e-014 6.36111e-015
rhumerus -50.5321 2.93113 -78.8116
rradius 53.1318
rwrist -4.48591
rhand -18.6493 -29.4241
rfingers 7.12502
rthumb 7.64365 -419.266
lclavicle 2.31087e-014 6.36111e-015
lhumerus -67.8724 -3.34982 101.43
lradius 57.7696
lwrist 20.2828
lhand 5.30817 15.3411
lfingers 7.12502
lthumb 30.6639 42.8061
rfemur -14.0253 -5.22892 30.6719
rtibia 24.8482
rfoot -9.60671 25.5467
rtoes 46.7591
lfemur -43.8924 -17.1898 -2.83997
ltibia 58.9369
lfoot 2.7345 -14.4811
ltoes 43.0613
282
root 3.78578 17.0035 -16.937 6.21887 20.8997 -11.394
lowerback -4.05409 0.644835 7.03446
upperback -0.877107 0.516114 5.51312
thorax 1.38 0.292736 1.78189
lowerneck -9.62328 -7.06796 -2.29558
upperneck 37.8165 -10.945 3.05501
head 15.1176 -4.47179 0.0285064
rclavicle 4.2689e-014 5.24792e-014
rhumerus -50.3471 2.01685 -78.7094
rradius 52.3092
rwrist -5.49494
rhand -20.9641 -32.8878
rfingers 7.12502
rthumb 5.40905 -422.799
lclavicle 4.2689e-014 5.24792e-014
lhumerus -68.0007 -2.41474 101.76
lradius 57.96
lwrist 21.0445
lhand 4.95781 15.4464
lfingers 7.12502
lthumb 30.3297 42.9735
rfemur -13.8441 -5.45137 31.3184
rtibia 24.9159
rfoot -9.53442 25.9235
rtoes 46.8869
lfemur -44.1338 -16.7526 -2.45737
ltibia 59.8249
lfoot 3.04197 -14.2223
ltoes 43.0219
